HIERARCHY
ROOT hip
{
	OFFSET 0.000000 0.000000 0.000000
	CHANNELS 6 Xposition Yposition Zposition Zrotation Yrotation Xrotation 
	JOINT lhipjoint
	{
		OFFSET 0.000000 0.000000 0.000000
		CHANNELS 3 Zrotation Yrotation Xrotation
		JOINT lfemur
		{
			OFFSET 1.363060 -1.794630 0.839290
			CHANNELS 3 Zrotation Yrotation Xrotation
			JOINT ltibia
			{
				OFFSET 2.448110 -6.726130 0.000000
				CHANNELS 3 Zrotation Yrotation Xrotation
				JOINT lfoot
				{
					OFFSET 2.562200 -7.039590 0.000000
					CHANNELS 3 Zrotation Yrotation Xrotation
					JOINT ltoes
					{
						OFFSET 0.157640 -0.433110 2.322550
						CHANNELS 3 Zrotation Yrotation Xrotation
						End Site
						{
							OFFSET 0.000000 0.000000 0.000000
						}
					}
				}
			}
		}
	}
	JOINT rhipjoint
	{
		OFFSET 0.000000 0.000000 0.000000
		CHANNELS 3 Zrotation Yrotation Xrotation
		JOINT rfemur
		{
			OFFSET -1.305520 -1.794630 0.839290
			CHANNELS 3 Zrotation Yrotation Xrotation
			JOINT rtibia
			{
				OFFSET -2.542530 -6.985550 0.000000
				CHANNELS 3 Zrotation Yrotation Xrotation
				JOINT rfoot
				{
					OFFSET -2.568260 -7.056230 0.000000
					CHANNELS 3 Zrotation Yrotation Xrotation
					JOINT rtoes
					{
						OFFSET -0.164730 -0.452590 2.363150
						CHANNELS 3 Zrotation Yrotation Xrotation
						End Site
						{
							OFFSET 0.000000 0.000000 0.000000
						}
					}
				}
			}
		}
	}
	JOINT lowerback
	{
		OFFSET 0.000000 0.000000 0.000000
		CHANNELS 3 Zrotation Yrotation Xrotation
		JOINT upperback
		{
			OFFSET 0.028270 2.035590 -0.193380
			CHANNELS 3 Zrotation Yrotation Xrotation
			JOINT thorax
			{
				OFFSET 0.056720 2.048850 -0.042750
				CHANNELS 3 Zrotation Yrotation Xrotation
				JOINT lowerneck
				{
					OFFSET 0.000000 0.000000 0.000000
					CHANNELS 3 Zrotation Yrotation Xrotation
					JOINT upperneck
					{
						OFFSET -0.054170 1.746240 0.172020
						CHANNELS 3 Zrotation Yrotation Xrotation
						JOINT head
						{
							OFFSET 0.104070 1.761360 -0.123970
							CHANNELS 3 Zrotation Yrotation Xrotation
							End Site
							{
								OFFSET 0.000000 0.000000 0.000000
							}
						}
					}
				}
				JOINT lclavicle
				{
					OFFSET 0.000000 0.000000 0.000000
					CHANNELS 3 Zrotation Yrotation Xrotation
					JOINT lhumerus
					{
						OFFSET 3.362410 1.200890 -0.311210
						CHANNELS 3 Zrotation Yrotation Xrotation
						JOINT lradius
						{
							OFFSET 4.983000 -0.000000 -0.000000
							CHANNELS 3 Zrotation Yrotation Xrotation
							JOINT lwrist
							{
								OFFSET 3.483560 -0.000000 -0.000000
								CHANNELS 3 Zrotation Yrotation Xrotation
								JOINT lhand
								{
									OFFSET 0.000000 0.000000 0.000000
									CHANNELS 3 Zrotation Yrotation Xrotation
									JOINT lfingers
									{
										OFFSET 0.715260 -0.000000 -0.000000
										CHANNELS 3 Zrotation Yrotation Xrotation
										End Site
										{
											OFFSET 0.000000 0.000000 0.000000
										}
									}
								}
								JOINT lthumb
								{
									OFFSET 0.000000 0.000000 0.000000
									CHANNELS 3 Zrotation Yrotation Xrotation
									End Site
									{
										OFFSET 0.000000 0.000000 0.000000
									}
								}
							}
						}
					}
				}
				JOINT rclavicle
				{
					OFFSET 0.000000 0.000000 0.000000
					CHANNELS 3 Zrotation Yrotation Xrotation
					JOINT rhumerus
					{
						OFFSET -3.136600 1.374050 -0.404650
						CHANNELS 3 Zrotation Yrotation Xrotation
						JOINT rradius
						{
							OFFSET -5.241900 -0.000000 -0.000000
							CHANNELS 3 Zrotation Yrotation Xrotation
							JOINT rwrist
							{
								OFFSET -3.444170 -0.000000 -0.000000
								CHANNELS 3 Zrotation Yrotation Xrotation
								JOINT rhand
								{
									OFFSET 0.000000 0.000000 0.000000
									CHANNELS 3 Zrotation Yrotation Xrotation
									JOINT rfingers
									{
										OFFSET -0.622530 -0.000000 -0.000000
										CHANNELS 3 Zrotation Yrotation Xrotation
										End Site
										{
											OFFSET 0.000000 0.000000 0.000000
										}
									}
								}
								JOINT rthumb
								{
									OFFSET 0.000000 0.000000 0.000000
									CHANNELS 3 Zrotation Yrotation Xrotation
									End Site
									{
										OFFSET 0.000000 0.000000 0.000000
									}
								}
							}
						}
					}
				}
			}
		}
	}
}
MOTION
Frames: 5
Frame Time: 0.008333
-9.500847 18.163016 -1.440164 -17.842697 -84.712505 16.062667 3.540547 2.302738 0.043776 -17.811305 -5.793804 -27.668238 1.395122 8.003727 24.095935 0.961306 2.621316 19.868827 0.121700 -2.248900 -6.194200 -5.785365 -1.952245 -4.722333 20.746591 -13.595114 22.666191 -0.978450 -3.158680 11.031438 -0.847499 18.087217 -0.658940 -0.123600 2.266000 -6.241300 1.894089 2.900213 3.964829 0.191789 3.820577 -1.612035 -1.148273 2.159978 12.162055 -3.356639 -5.685267 -13.282341 5.191217 -7.770819 17.411479 0.036200 -3.331000 1.314300 4.161914 -6.443486 3.966844 -88.676540 6.677558 9.103781 1.338610 -22.013556 -0.971297 0.142173 0.820642 46.432919 7.768069 -4.979940 -0.818900 -7.125000 0.000000 0.000000 -13.634800 24.277900 7.014900 1.695855 7.442610 5.956801 78.980311 4.338380 22.539189 -49.855973 53.496542 -18.278653 0.710364 -3.967836 -12.862324 -11.817505 5.655234 -2.014700 7.125000 0.000000 0.000000 10.885000 -20.067700 6.608100 
-9.666647 18.161565 -1.404179 -14.812506 -84.884764 12.973199 3.482167 2.317685 0.061445 -18.102817 -6.033400 -27.416081 1.531819 8.258511 24.853489 0.942669 2.988731 20.461539 0.081800 -1.844900 -5.077300 -5.827631 -1.919211 -4.733257 20.403784 -13.211980 22.448358 -1.118737 -3.713417 12.616910 -0.803761 18.021392 -0.139560 -0.142800 2.435300 -6.710400 1.456072 2.951790 3.872095 0.152310 3.919147 -1.601261 -1.138054 2.204424 12.239164 -3.525602 -5.707170 -13.240784 5.267987 -7.836057 17.357536 0.125100 -3.370000 1.283500 4.124143 -6.425377 3.966814 -88.568045 6.251569 8.691896 1.239591 -21.806430 -0.954992 0.120465 0.804364 46.869038 7.567503 -5.013140 -0.799800 -7.125000 0.000000 0.000000 -13.775000 24.278500 7.091000 1.686264 7.371924 5.964892 79.001094 4.312037 22.635565 -50.360625 53.722581 -18.576977 0.713688 -3.973930 -13.244148 -11.816826 5.728960 -2.026500 7.125000 0.000000 0.000000 10.899400 -19.988500 6.636900 
-9.833512 18.158954 -1.368485 -11.360137 -85.080574 9.444190 3.424638 2.347490 0.087638 -18.423452 -6.234236 -27.139011 1.661703 8.504735 25.600821 0.957043 3.144654 20.924216 0.034400 -1.196800 -3.290500 -5.874526 -1.873492 -4.746871 20.059952 -12.756785 22.158520 -1.294159 -4.326743 14.392423 -0.758566 17.898934 0.471487 -0.174400 2.689800 -7.416400 0.973549 2.994318 3.772399 0.113870 4.008711 -1.593010 -1.102017 2.241975 12.302425 -3.704122 -5.707920 -13.195274 5.333928 -7.867225 17.330332 0.207500 -3.390400 1.263900 4.079154 -6.410979 3.969920 -88.465789 5.881907 8.549581 1.250536 -21.748834 -0.951867 0.097550 0.820297 46.923663 7.294027 -4.874519 -0.755300 -7.125000 0.000000 0.000000 -13.968600 24.423800 7.148100 1.684104 7.314707 5.971319 78.979440 4.228264 22.783010 -50.986971 53.985326 -18.938055 0.718518 -3.967496 -13.628107 -11.717927 5.775136 -2.012800 7.125000 0.000000 0.000000 10.982600 -19.955400 6.697800 
-10.000764 18.157116 -1.333081 -7.586531 -85.250225 5.618047 3.377227 2.392094 0.118899 -18.777488 -6.398426 -26.868742 1.785086 8.745018 26.346987 0.990082 3.082796 21.130221 0.011300 -0.687800 -1.890200 -5.919648 -1.815829 -4.764660 19.701656 -12.338282 21.789124 -1.496280 -4.965025 16.264525 -0.711479 17.734431 1.238390 -0.215600 2.989500 -8.249400 0.490666 3.055697 3.645496 0.071423 4.122395 -1.579014 -1.082129 2.295052 12.424875 -3.849390 -5.738438 -13.228768 5.421167 -7.944127 17.320317 0.287600 -3.432700 1.272700 4.030307 -6.372809 3.969372 -88.330933 5.440624 8.354298 1.253531 -21.668520 -0.947841 0.075411 0.823051 47.161964 7.080672 -4.820310 -0.726900 -7.125000 0.000000 0.000000 -14.117200 24.495500 7.204500 1.686210 7.243479 5.974900 78.991654 4.219928 22.855968 -51.619939 54.241485 -19.309577 0.732910 -3.958078 -14.021903 -11.580577 5.753910 -1.979900 7.125000 0.000000 0.000000 11.089600 -19.992600 6.756200 
-10.168112 18.154988 -1.298643 -3.828188 -85.415488 1.761654 3.345509 2.451385 0.151206 -19.129881 -6.537563 -26.534144 1.908138 8.973701 27.072937 0.996100 2.983655 21.025960 0.004400 -0.427700 -1.175200 -5.951681 -1.747012 -4.781847 19.351611 -11.893213 21.402481 -1.724512 -5.615274 18.200832 -0.666920 17.475053 2.184277 -0.246600 3.195400 -8.823100 0.021073 3.112706 3.537666 0.028809 4.228145 -1.564760 -1.081399 2.344914 12.543326 -3.939522 -5.766103 -13.278791 5.481813 -8.005189 17.332285 0.338600 -3.465000 1.291600 3.983831 -6.322446 3.967198 -88.186432 4.993666 8.100552 1.271014 -21.588234 -0.949507 0.065278 0.826748 47.463482 7.001789 -4.710710 -0.705000 -7.125000 0.000000 0.000000 -14.177600 24.611200 7.197800 1.691512 7.183340 5.978787 79.018012 4.241680 22.992740 -52.284756 54.501140 -19.690568 0.761868 -3.943798 -14.478890 -11.384199 5.627433 -1.917600 7.125000 0.000000 0.000000 11.236200 -20.139700 6.811100 
